<?xml version="1.0" encoding="UTF-8"?>
<svg id="Layer_1" data-name="Layer 1" xmlns="http://www.w3.org/2000/svg" viewBox="0 0 54.38 36.36">
  <defs>
    <style>
      .cls-1 {
        fill: #231f20;
      }
    </style>
  </defs>
  <polygon class="cls-1" points="37.98 24.97 37.98 33.06 30.44 33.06 31.26 32.19 33.5 29.78 33.5 29.78 37.98 24.97"/>
  <polygon class="cls-1" points="54.38 29.8 54.38 36.36 41.26 36.36 41.26 21.45 47.82 14.42 47.82 29.8 54.38 29.8"/>
  <polygon class="cls-1" points="47.82 0 47.82 9.61 41.26 16.64 37.98 20.16 37.98 20.17 35.74 22.57 31.26 27.38 31.26 27.38 31.26 27.38 29.02 29.78 29.01 29.78 29.01 29.79 25.95 33.06 22.88 36.36 13.91 36.36 16.99 33.06 20.05 29.78 24.53 24.97 26.77 22.57 26.77 22.56 24.52 20.15 24.1 19.7 8.56 36.36 -.41 36.36 19.61 14.89 24.09 10.08 24.52 10.54 28.58 14.89 29 15.34 31.25 17.75 31.26 17.76 37.98 10.55 41.26 7.03 47.82 0"/>
</svg>