<?xml version="1.0" encoding="UTF-8"?>
<svg id="Layer_1" data-name="Layer 1" xmlns="http://www.w3.org/2000/svg" viewBox="0 0 75.35 50">
  <defs>
    <style>
      .cls-1 {
        fill: #231f20;
      }
    </style>
  </defs>
  <polygon class="cls-1" points="52.8 34.34 52.8 45.46 42.42 45.46 43.55 44.26 46.63 40.95 46.63 40.95 52.8 34.34"/>
  <polygon class="cls-1" points="75.35 40.98 75.35 50 57.31 50 57.31 29.5 66.33 19.83 66.33 40.98 75.35 40.98"/>
  <polygon class="cls-1" points="66.33 0 66.33 13.21 57.31 22.88 52.8 27.73 52.8 27.73 49.71 31.03 43.55 37.64 43.55 37.64 43.55 37.65 40.47 40.95 40.46 40.95 40.46 40.96 36.26 45.46 32.03 50 19.7 50 23.93 45.46 28.14 40.95 34.3 34.34 37.38 31.03 37.37 31.02 34.28 27.71 33.7 27.09 12.34 50 0 50 27.54 20.48 33.7 13.87 34.28 14.49 39.87 20.48 40.45 21.1 43.53 24.41 43.55 24.42 52.8 14.51 57.31 9.67 66.33 0"/>
</svg>